<svg width="186" height="40" viewBox="0 0 186 40" fill="none" xmlns="http://www.w3.org/2000/svg">
<g clip-path="url(#clip0_25_149)">
<path d="M20.0371 39.5152C30.8361 39.5152 39.5904 30.761 39.5904 19.9622C39.5904 9.16336 30.8361 0.40918 20.0371 0.40918C9.23818 0.40918 0.483887 9.16336 0.483887 19.9622C0.483887 30.761 9.23818 39.5152 20.0371 39.5152Z" fill="#ACCE3B"/>
<mask id="mask0_25_149" style="mask-type:luminance" maskUnits="userSpaceOnUse" x="0" y="0" width="40" height="40">
<path d="M20.0371 39.5152C30.8361 39.5152 39.5904 30.761 39.5904 19.9622C39.5904 9.16336 30.8361 0.40918 20.0371 0.40918C9.23818 0.40918 0.483887 9.16336 0.483887 19.9622C0.483887 30.761 9.23818 39.5152 20.0371 39.5152Z" fill="white"/>
</mask>
<g mask="url(#mask0_25_149)">
<path d="M20.0374 35.9877C28.8881 35.9877 36.063 28.8128 36.063 19.9622C36.063 11.1116 28.8881 3.93677 20.0374 3.93677C11.1866 3.93677 4.01172 11.1116 4.01172 19.9622C4.01172 28.8128 11.1866 35.9877 20.0374 35.9877Z" fill="#ACCE3B"/>
<path d="M20.0377 36.4693C16.7731 36.4674 13.5822 35.4981 10.8683 33.6836C8.15437 31.8691 6.03911 29.291 4.78979 26.2749C3.54047 23.2588 3.21313 19.9401 3.84914 16.7381C4.48515 13.536 6.05596 10.5943 8.36312 8.28463C11.4815 5.29711 15.6461 3.64999 19.9645 3.69626C24.2828 3.74253 28.4111 5.47851 31.4648 8.53215C34.5185 11.5858 36.2545 15.7141 36.3008 20.0324C36.347 24.3506 34.6999 28.5152 31.7123 31.6336C30.1827 33.1713 28.3632 34.3905 26.3593 35.2205C24.3554 36.0506 22.2067 36.475 20.0377 36.4693ZM20.0377 4.41837C11.4679 4.42142 4.49681 11.3925 4.49681 19.9622C4.49681 28.5318 11.4679 35.5029 20.0377 35.5029C28.6075 35.5029 35.5786 28.5318 35.5786 19.9622C35.5786 11.3925 28.6075 4.42142 20.0377 4.42142V4.41837Z" fill="#140533"/>
<path d="M27.173 38.5665C22.3954 33.3248 8.70391 30.1497 7.46229 29.1436C7.46229 29.1436 6.52114 30.2139 3.40332 30.6917C4.30548 36.529 17.4144 42.763 26.2411 39.8792C26.3236 39.8516 27.173 38.5665 27.173 38.5665Z" fill="#290327"/>
<path d="M26.3514 38.8064C26.3514 38.8064 23.479 35.655 16.6157 33.1817C9.75237 30.7085 11.7448 31.9355 6.99083 29.512C6.99083 29.512 6.04738 30.0364 5.47168 30.2085L8.18046 32.6833L23.9377 39.3095L26.3514 38.8064Z" fill="#ACCE3B"/>
<path d="M25.0668 39.0741C25.0668 39.0741 22.248 36.1505 15.52 33.9364C8.79197 31.7223 7.85922 31.6061 5.96315 29.9746C5.96315 29.9746 5.23454 30.3531 4.04032 30.6153L3.40039 30.6917C3.40039 30.6917 4.88131 37.0993 14.8747 39.6368C24.8681 42.1743 26.2381 39.8761 26.2381 39.8761L25.0668 39.0741Z" fill="#5E721D"/>
<path d="M24.2311 39.3098C24.2311 39.3098 20.4726 36.2669 14.5015 35.0436C8.53036 33.8204 5.23899 32.4863 3.40332 30.6919C3.40332 30.6919 4.16787 36.0628 12.8898 39.049C21.6117 42.0353 24.2311 39.3098 24.2311 39.3098Z" fill="#28310D"/>
<path d="M22.7157 39.5436C22.7157 39.5436 16.1903 34.9211 8.29639 35.4043C8.29639 35.4043 13.1031 42.0925 22.7157 39.5436Z" fill="#ACCE3B"/>
<path d="M20.757 39.5435C20.757 39.5435 14.7798 36.0748 9.77588 36.5205C9.77588 36.5205 15.419 41.8601 20.757 39.5435Z" fill="#5E721D"/>
<path d="M25.9066 5.28402C23.4707 4.11733 21.5487 3.83598 18.6602 4.04853C9.83353 4.69991 3.20645 12.3866 3.85708 21.2101L5.29595 24.8409L25.9066 5.28402Z" fill="#ACCE3B"/>
<path d="M21.2268 9.68975C21.2268 9.68975 17.6793 4.05283 8.32507 8.8847C8.32507 8.8847 6.03984 11.7272 5.56582 12.7395C5.09181 13.7517 14.6907 15.9085 14.6907 15.9085L21.2268 9.68975Z" fill="#94B42D"/>
<path d="M18.6152 25.083C18.6152 25.083 17.3414 29.7635 12.5883 32.8859L9.01172 32.1733L14.2634 24.7245L17.0157 23.002L18.6152 25.083Z" fill="#28310D"/>
<path d="M5.29567 25.3256C5.19853 25.3255 5.10365 25.2964 5.02326 25.2419C4.94286 25.1873 4.88063 25.11 4.84458 25.0198L3.40647 21.3883C3.3887 21.3424 3.37763 21.2943 3.3736 21.2453C3.05253 16.8788 4.47865 12.5634 7.33843 9.24805C10.1982 5.93269 14.2576 3.88867 18.624 3.5654C21.3649 3.36509 23.4712 3.49659 26.1471 4.77642C26.2179 4.81035 26.2794 4.86097 26.3263 4.92393C26.3732 4.98688 26.4041 5.06028 26.4164 5.13782C26.4286 5.21536 26.4219 5.29472 26.3967 5.36907C26.3715 5.44342 26.3286 5.51054 26.2717 5.56466L5.62901 25.1926C5.53901 25.278 5.41971 25.3256 5.29567 25.3256ZM4.3354 21.1023L5.48222 23.9969L25.0821 5.359C23.1654 4.54935 21.4001 4.33223 18.6959 4.53177C14.5976 4.83392 10.7859 6.74699 8.09466 9.85242C5.40341 12.9579 4.05175 17.0028 4.3354 21.1023Z" fill="#140533"/>
<path d="M5.32323 14.8118C5.32323 14.8118 1.68628 15.7124 1.96993 18.6497C1.96993 18.6497 2.24899 19.8631 2.42254 20.1528C2.59609 20.4426 0.724484 20.8203 0.458422 22.0657C0.192361 23.3111 1.35829 26.3425 1.35829 26.3425L5.86911 22.2255L6.78657 19.4066L5.32323 14.8118Z" fill="#94B42D"/>
<path d="M1.36004 26.8272C1.32246 26.827 1.28501 26.8227 1.24841 26.8142C1.17162 26.7959 1.10043 26.7592 1.04101 26.7073C0.981596 26.6553 0.935742 26.5897 0.907425 26.516C0.783569 26.1918 -0.299792 23.3118 -0.0100293 21.9647C0.202514 20.9655 1.1559 20.441 1.72625 20.1298L1.86005 20.0534C1.70714 19.6161 1.55423 18.983 1.50148 18.7582C1.49699 18.7378 1.49367 18.7171 1.49154 18.6963C1.35774 17.3079 1.9732 16.1091 3.27216 15.2284C3.86701 14.8312 4.52158 14.5318 5.21105 14.3415C5.33045 14.312 5.45658 14.3291 5.5639 14.3891C5.67122 14.4492 5.7517 14.5477 5.78905 14.6649L7.2478 19.2598C7.27875 19.3562 7.27875 19.46 7.2478 19.5564L6.33035 22.3745C6.30463 22.4545 6.25852 22.5264 6.19655 22.5832L1.68573 26.7002C1.59677 26.7817 1.48062 26.8269 1.36004 26.8272ZM2.44646 18.5725C2.57184 19.113 2.7561 19.7674 2.83561 19.9043C2.87451 19.9688 2.89986 20.0406 2.91011 20.1153C2.92036 20.1899 2.9153 20.2659 2.89524 20.3385C2.81879 20.6298 2.55196 20.7759 2.18575 20.9769C1.70714 21.2399 1.05116 21.6008 0.931126 22.1658C0.79045 22.8271 1.18419 24.3501 1.56799 25.4938L5.4473 21.954L6.27759 19.405L5.00845 15.4195C4.13763 15.7368 2.28361 16.6451 2.44646 18.5725Z" fill="#140533"/>
<path d="M29.1092 9.82932L27.2865 5.86137L25.7575 5.22681L14.9147 15.9089C14.9147 15.9089 14.0377 21.542 10.7922 25.6468L9.25244 31.2279L10.8152 31.1125L13.0637 27.7111C13.0637 27.7111 16.8039 26.7936 18.2703 20.5948L18.755 20.0435L19.4262 21.013C19.4262 21.013 21.6778 20.0382 21.9974 16.2728C23.1724 15.34 24.0969 14.1296 24.6879 12.7506C24.6879 12.7506 26.5144 11.3469 26.905 10.1344C26.9073 10.1313 28.6964 10.2628 29.1092 9.82932Z" fill="#ACCE3B"/>
<path d="M28.2688 8.39699C28.2688 8.39699 26.0387 8.80908 23.1724 7.89697L21.9751 9.05908C21.9751 9.05908 26.2566 10.5224 28.6802 9.91231L28.2688 8.39699Z" fill="#94B42D"/>
<path d="M25.4711 11.4331C25.4711 11.4331 22.6828 11.7052 20.828 10.5798L18.6108 12.81C18.6108 12.81 24.3182 12.5845 25.4711 11.4331Z" fill="#94B42D"/>
<path d="M20.0357 12.9766C20.0357 12.9766 18.7888 14.2067 21.6634 14.5271C21.6634 14.5271 17.4477 14.881 17.1694 14.0225C16.8912 13.1639 18.1198 12.988 18.1198 12.988L20.0357 12.9766Z" fill="#94B42D"/>
<path d="M18.2613 16.243C18.2613 16.243 16.3277 16.8807 15.226 15.886L14.5586 17.5542L14.5356 18.4464L17.3889 17.3493L18.2613 16.243Z" fill="#94B42D"/>
<path d="M19.0458 15.8574C19.0458 15.8574 19.4755 17.3101 21.5994 16.6701L18.5962 17.8934C18.5962 17.8934 17.4609 18.0738 17.4349 17.9699C17.4089 17.8659 18.0121 16.9064 18.0121 16.9064L19.0458 15.8574Z" fill="#94B42D"/>
<path d="M16.6783 21.132C16.6783 21.132 14.6201 22.2704 14.2967 20.1939C13.9733 18.1174 13.2202 21.619 13.2202 21.619L13.2883 22.5403C13.2883 22.5403 15.1996 22.5281 15.2333 22.3966C15.2669 22.2651 16.6783 21.132 16.6783 21.132Z" fill="#94B42D"/>
<path d="M16.612 24.2039C16.612 24.2039 13.4774 26.7483 12.8535 25.1213L12.6846 27.5319L13.563 27.6122L15.7963 25.6328L16.612 24.2039Z" fill="#94B42D"/>
<path d="M12.4525 26.8052C12.4525 26.8052 11.477 27.611 10.7461 27.822L9.63672 30.7548L10.4907 30.9077L12.4847 28.1087L12.4525 26.8052Z" fill="#94B42D"/>
<path d="M28.8995 9.98426L32.6076 17.9928L31.1932 19.9309C31.1932 19.9309 31.4049 21.1733 30.8422 21.4921C30.8422 21.4921 31.4753 22.6006 30.7077 23.1641C30.7077 23.1641 32.2658 26.4394 28.0975 26.2375L26.2137 20.1648L23.3306 15.4041C23.3306 15.4041 24.6494 13.4927 24.7786 12.4942C24.7786 12.4942 26.1548 11.5302 26.5371 10.5584C26.5371 10.5584 28.5822 9.67157 28.8995 9.98426Z" fill="#FFF7DF"/>
<path d="M30.8468 25.0717C30.8468 25.0717 29.6793 25.0931 28.4277 25.0381L28.5172 26.1979C28.5172 26.1979 30.2626 26.2392 30.8468 25.0717Z" fill="#6C8321"/>
<path d="M29.5045 21.5717C29.3795 21.5709 29.2597 21.5218 29.1701 21.4348C29.0804 21.3478 29.0278 21.2295 29.0233 21.1046C29.0187 20.9797 29.0626 20.8579 29.1457 20.7646C29.2288 20.6713 29.3448 20.6137 29.4693 20.6038L30.9984 20.4906C31.063 20.4839 31.1282 20.4902 31.1903 20.5092C31.2523 20.5281 31.3099 20.5594 31.3597 20.601C31.4095 20.6427 31.4504 20.6939 31.48 20.7516C31.5096 20.8094 31.5273 20.8725 31.5321 20.9372C31.5368 21.0019 31.5285 21.0669 31.5077 21.1284C31.4869 21.1898 31.4539 21.2465 31.4108 21.295C31.3676 21.3434 31.3152 21.3828 31.2566 21.4106C31.198 21.4384 31.1344 21.4542 31.0695 21.457L29.5404 21.5702L29.5045 21.5717Z" fill="#140533"/>
<path d="M30.6856 18.9143C30.5847 18.9127 30.4883 18.8723 30.4162 18.8016C30.3442 18.7309 30.3021 18.6353 30.2986 18.5344C30.295 18.4336 30.3304 18.3352 30.3973 18.2597C30.4642 18.1841 30.5575 18.1371 30.658 18.1284L32.1871 18.0152C32.2901 18.0096 32.3911 18.0446 32.4686 18.1127C32.546 18.1808 32.5937 18.2765 32.6013 18.3793C32.6089 18.4822 32.5758 18.5839 32.5093 18.6626C32.4427 18.7413 32.3479 18.7908 32.2452 18.8004L30.7161 18.9136L30.6856 18.9143Z" fill="#799325"/>
<path d="M29.1856 13.8697C29.1856 13.8697 29.3599 12.258 27.7161 12.9125C26.0723 13.5669 24.6357 15.2313 24.6357 15.2313C24.6357 15.2313 25.1778 15.7115 25.8644 15.4477C25.8644 15.4446 27.4302 13.9247 29.1856 13.8697Z" fill="#87A329"/>
<path d="M25.8643 15.4447C25.8643 15.4447 27.2213 16.3171 28.2282 16.0632L28.1449 14.9302C28.1449 14.9302 27.3001 15.4982 25.8643 15.4447Z" fill="#9FC131"/>
<path d="M29.1362 16.0856L29.0345 14.7094L29.1874 13.8684C29.1874 13.8684 27.3043 13.808 25.8662 15.4465C25.8662 15.4465 27.198 15.4839 28.1468 14.9319L28.2363 16.1506L29.1362 16.0856Z" fill="#140533"/>
<path d="M24.5174 27.344L18.8444 24.1482L18.5088 25.6566C18.5088 25.6566 21.0318 28.4197 23.9944 29.0451L24.5174 27.344Z" fill="#5E721D"/>
<path d="M28.6394 25.8889L28.4276 25.0379L20.5658 20.1885L19.4243 21.0119L18.8433 24.1465C18.8433 24.1465 20.7195 26.4347 24.5162 27.3422L24.7838 26.4714L28.66 26.1855L28.6394 25.8889Z" fill="#28310D"/>
<path d="M27.7363 22.5778L27.4236 20.6825C27.4236 20.6825 24.7844 17.9065 23.5955 14.7329L22.0259 16.6098C22.0259 16.6098 23.6452 22.3905 27.893 23.4807L27.7363 22.5778Z" fill="#9FC131"/>
<path d="M28.4277 25.0381L21.3825 18.8208L20.5659 20.1886C20.5659 20.1886 22.936 25.1971 28.4277 25.0381Z" fill="#87A329"/>
<path d="M27.7355 22.5778C27.7355 22.5778 24.159 21.447 22.6475 15.9194L20.6895 17.3224C20.6895 17.3224 22.8921 23.3018 28.4274 25.0381C28.0701 24.259 27.8367 23.4289 27.7355 22.5778Z" fill="#94B42D"/>
<path d="M16.8877 33.3473C16.8877 33.3473 20.9436 34.66 22.1264 35.1233L23.9949 29.0452L20.3679 29.1774L16.335 32.4795L16.8877 33.3473Z" fill="#FFF7DF"/>
<path d="M23.9951 29.0452C20.1181 27.7073 18.4675 25.0803 18.4675 25.0803C18.2014 26.117 17.4201 27.3334 16.5278 28.4672C16.5576 29.8136 17.2159 31.2845 17.8276 32.3664C21.1526 29.1805 23.9951 29.0452 23.9951 29.0452Z" fill="#ACCE3B"/>
<path d="M16.5278 28.467C14.9322 30.4931 12.4849 32.8655 12.4849 32.8655L16.4651 33.7699C16.7824 33.4152 17.5202 32.6682 17.8313 32.3693C17.2174 31.2844 16.5576 29.8134 16.5278 28.467Z" fill="#87A329"/>
<path d="M19.7919 28.7657L19.0503 28.126L18.4106 28.8676L19.1522 29.5073L19.7919 28.7657Z" fill="#FFF7DF"/>
<path d="M18.7184 19.5457L20.5281 23.3026L18.8384 25.5061L17.0479 23.4532L18.7184 19.5457Z" fill="#ACCE3B"/>
<path d="M19.427 21.4967C19.3174 21.4983 19.2104 21.4627 19.1236 21.3957C19.0368 21.3287 18.9753 21.2342 18.9491 21.1277C18.9229 21.0212 18.9336 20.909 18.9794 20.8094C19.0253 20.7097 19.1036 20.6286 19.2015 20.5792C21.765 19.2359 21.5265 16.4316 21.5158 16.3131C21.514 16.1913 21.5581 16.0734 21.6393 15.9827C21.7205 15.892 21.8329 15.8352 21.954 15.8235C22.0752 15.8119 22.1963 15.8462 22.2933 15.9198C22.3903 15.9933 22.4561 16.1007 22.4776 16.2205C22.4921 16.365 22.8017 19.7887 19.6487 21.4416C19.5803 21.4775 19.5043 21.4963 19.427 21.4967Z" fill="#140533"/>
<path d="M27.1119 10.5755C25.8626 10.5755 24.0858 10.3515 21.8075 9.51352C21.7304 9.48544 21.6618 9.43827 21.608 9.37642C21.5542 9.31456 21.517 9.24006 21.4999 9.1599C21.4828 9.07974 21.4863 8.99654 21.5102 8.91811C21.534 8.83968 21.5774 8.76859 21.6362 8.71151L25.5996 4.86585C25.6708 4.79684 25.7615 4.75135 25.8594 4.73549C25.9573 4.71963 26.0577 4.73417 26.147 4.77716L27.4941 5.42473C27.5956 5.47352 27.6767 5.55629 27.7235 5.65868L29.5469 9.62667C29.5746 9.68683 29.5896 9.752 29.591 9.81817C29.5925 9.88435 29.5804 9.95012 29.5555 10.0114C29.5305 10.0728 29.4933 10.1283 29.4461 10.1747C29.3989 10.2211 29.3426 10.2573 29.2809 10.2811C29.2274 10.3025 28.4911 10.5755 27.1119 10.5755ZM22.8771 8.85907C25.6998 9.77652 27.5782 9.64655 28.4238 9.49823L26.9184 6.22215L26.0331 5.7963L22.8771 8.85907Z" fill="#140533"/>
<path d="M19.0435 13.1869C18.5557 13.1869 18.2445 13.1747 18.2124 13.1731C18.1473 13.1726 18.083 13.159 18.0232 13.1331C17.9635 13.1072 17.9096 13.0695 17.8648 13.0223C17.8199 12.9751 17.785 12.9194 17.7622 12.8584C17.7394 12.7974 17.7291 12.7324 17.7319 12.6674C17.7347 12.6024 17.7506 12.5385 17.7787 12.4798C17.8067 12.421 17.8463 12.3685 17.895 12.3254C17.9438 12.2822 18.0008 12.2494 18.0625 12.2287C18.1243 12.2081 18.1895 12.2001 18.2545 12.2052C19.5913 12.2457 20.9293 12.1841 22.2568 12.021C24.6659 11.6991 26.0536 11.0148 26.1644 10.0928C26.1697 10.0278 26.188 9.96444 26.2183 9.90665C26.2486 9.84886 26.2902 9.79778 26.3407 9.75647C26.3913 9.71516 26.4496 9.68448 26.5122 9.66626C26.5749 9.64803 26.6406 9.64265 26.7054 9.65043C26.7702 9.6582 26.8327 9.67898 26.8893 9.71151C26.9458 9.74404 26.9952 9.78766 27.0345 9.83975C27.0738 9.89183 27.1022 9.95132 27.118 10.0146C27.1337 10.078 27.1365 10.1438 27.1262 10.2082C26.9535 11.6532 25.354 12.5867 22.3731 12.9828C21.2687 13.1215 20.1565 13.1897 19.0435 13.1869Z" fill="#140533"/>
<path d="M14.1879 19.1908C14.0646 19.1915 13.9457 19.1451 13.8554 19.061C13.7651 18.977 13.7103 18.8617 13.7022 18.7386C13.6941 18.6155 13.7333 18.494 13.8118 18.3989C13.8903 18.3037 14.0021 18.2421 14.1245 18.2267C14.1604 18.2213 17.8532 17.6839 18.7179 14.6104C18.7553 14.4897 18.8384 14.3884 18.9495 14.3281C19.0605 14.2678 19.1907 14.2532 19.3124 14.2875C19.434 14.3218 19.5374 14.4023 19.6006 14.5117C19.6638 14.6211 19.6817 14.7509 19.6506 14.8734C19.3508 15.9461 18.7254 16.8992 17.8608 17.6013C21.5742 16.6211 23.7547 14.6876 24.4902 11.7457C24.5221 11.6217 24.6017 11.5153 24.7117 11.4498C24.8217 11.3843 24.9532 11.365 25.0774 11.3961C25.2016 11.4272 25.3085 11.5062 25.3746 11.6158C25.4408 11.7254 25.4609 11.8568 25.4306 11.9812C24.9183 14.0301 23.7677 15.6693 22.01 16.852C20.1499 18.1036 17.5336 18.8903 14.2315 19.1892C14.217 19.1905 14.2025 19.191 14.1879 19.1908Z" fill="#140533"/>
<path d="M20.8716 15.3986C19.4241 15.4079 17.9987 15.0429 16.7339 14.3389C16.6322 14.2716 16.5596 14.1685 16.5305 14.0501C16.5015 13.9317 16.5182 13.8067 16.5772 13.7C16.6362 13.5933 16.7333 13.5128 16.8491 13.4745C16.9648 13.4362 17.0907 13.4429 17.2018 13.4933C20.3494 15.2564 23.6186 13.9643 23.6507 13.9521C23.7687 13.9079 23.8993 13.9115 24.0147 13.9619C24.1302 14.0124 24.2214 14.1059 24.2691 14.2225C24.3168 14.3391 24.3173 14.4697 24.2703 14.5866C24.2234 14.7036 24.1328 14.7976 24.0177 14.8489C23.9298 14.8848 22.6446 15.3986 20.8716 15.3986Z" fill="#140533"/>
<path d="M18.8384 25.9909C18.7692 25.9909 18.7008 25.976 18.6378 25.9474C18.5747 25.9188 18.5185 25.8771 18.4729 25.825L16.6824 23.7715C16.6224 23.7029 16.5831 23.6188 16.5689 23.5288C16.5547 23.4389 16.5662 23.3467 16.6021 23.263L18.2719 19.3555C18.3086 19.2702 18.369 19.1972 18.446 19.1452C18.523 19.0932 18.6134 19.0645 18.7062 19.0624C18.7991 19.0603 18.8906 19.0849 18.9699 19.1334C19.0492 19.1818 19.1129 19.252 19.1534 19.3356L20.9638 23.0903C21.0027 23.1711 21.0184 23.2611 21.0092 23.3503C21 23.4395 20.9663 23.5244 20.9118 23.5956L19.2222 25.799C19.1786 25.8558 19.1229 25.9022 19.0592 25.9348C18.9954 25.9675 18.9253 25.9856 18.8537 25.9879L18.8384 25.9909ZM17.6151 23.364L18.817 24.7401L19.9638 23.2432L18.7444 20.7202L17.6151 23.364Z" fill="#140533"/>
<path d="M8.47069 32.4732C8.35184 32.4733 8.23712 32.4296 8.14834 32.3506C8.05955 32.2716 8.00289 32.1628 7.98911 32.0447C7.97533 31.9267 8.0054 31.8077 8.07361 31.7103C8.14182 31.613 8.24341 31.5441 8.35907 31.5168C10.6894 30.9656 12.1971 27.6628 12.2116 27.6291C12.2418 27.5619 12.2869 27.5025 12.3434 27.4554C12.4 27.4082 12.4666 27.3745 12.5381 27.357C15.6154 26.6001 16.5718 23.3538 16.5818 23.3217C16.6198 23.2019 16.7029 23.1015 16.8136 23.0418C16.9243 22.982 17.0539 22.9677 17.175 23.0017C17.296 23.0358 17.3991 23.1155 17.4625 23.2242C17.5259 23.3328 17.5445 23.4618 17.5145 23.584C17.4717 23.7369 16.4487 27.2537 12.9937 28.2385C12.5893 29.0496 11.0189 31.8838 8.58232 32.4602C8.5457 32.4687 8.50826 32.473 8.47069 32.4732Z" fill="#140533"/>
<path d="M12.6545 28.3126C12.5864 28.3119 12.5191 28.2969 12.4571 28.2687C12.395 28.2405 12.3395 28.1997 12.2942 28.1488C12.2488 28.0979 12.2146 28.0381 12.1937 27.9732C12.1728 27.9084 12.1657 27.8398 12.1729 27.772C12.3376 26.2909 12.257 24.7927 11.9343 23.3377C11.9032 23.2172 11.9197 23.0893 11.9803 22.9805C12.0409 22.8718 12.1411 22.7905 12.26 22.7536C15.7494 21.6718 17.53 20.0953 18.1134 19.4967C17.8779 19.1455 17.5972 18.8267 17.2785 18.5487C17.1833 18.4668 17.1235 18.3513 17.1118 18.2262C17.1001 18.1012 17.1373 17.9765 17.2157 17.8784C17.2941 17.7803 17.4075 17.7165 17.532 17.7003C17.6565 17.6842 17.7824 17.7169 17.8833 17.7918C18.3848 18.2202 18.8097 18.7312 19.1394 19.3025C19.1871 19.3852 19.2092 19.4801 19.2031 19.5753C19.197 19.6705 19.1629 19.7618 19.105 19.8377C19.0331 19.9317 17.3466 22.0846 12.9726 23.5403C13.2426 24.9711 13.2982 26.4342 13.1377 27.8814C13.1244 28.0001 13.0677 28.1097 12.9785 28.1893C12.8894 28.2689 12.774 28.3127 12.6545 28.3126Z" fill="#140533"/>
<path d="M22.1264 35.6076C22.0937 35.6077 22.0612 35.6043 22.0293 35.5977L5.36216 32.2115C5.25285 32.1891 5.15464 32.1295 5.08413 32.043C5.01361 31.9565 4.9751 31.8484 4.9751 31.7368C4.9751 31.6252 5.01361 31.517 5.08413 31.4305C5.15464 31.344 5.25285 31.2845 5.36216 31.262C11.0236 30.0945 10.3485 25.6755 10.3172 25.4882C10.3051 25.4159 10.3095 25.3417 10.33 25.2713C10.3505 25.2009 10.3866 25.136 10.4357 25.0815C13.87 21.284 14.0703 16.2893 14.0719 16.2396C14.0765 16.1139 14.1293 15.9948 14.2194 15.907L25.6012 4.8656C25.6723 4.79692 25.7627 4.75162 25.8603 4.73577C25.9578 4.71991 26.0579 4.73427 26.1471 4.77691L27.4942 5.42448C27.5957 5.47326 27.6768 5.55604 27.7236 5.65842L33.3461 17.8964C33.3846 17.9802 33.3984 18.0732 33.386 18.1646C33.3735 18.256 33.3353 18.342 33.2757 18.4124L31.9492 19.9744C32.0347 20.1794 32.0611 20.4042 32.0257 20.6235C31.9737 20.9331 31.8032 21.216 31.5073 21.4828C31.6307 21.7831 31.6519 22.1157 31.5677 22.4293C31.4937 22.6703 31.352 22.885 31.1595 23.0478C31.5203 23.8552 31.58 24.5409 31.3452 25.1342C31.0868 25.7856 30.4752 26.2764 29.5264 26.5937C29.4882 26.6062 29.4487 26.6141 29.4086 26.6174L25.1532 26.9316L22.5904 35.2651C22.5601 35.3644 22.4986 35.4514 22.415 35.513C22.3314 35.5747 22.2302 35.6079 22.1264 35.6076ZM7.43179 31.6427L21.7892 34.5579L24.3191 26.3277C24.3477 26.2344 24.4038 26.152 24.4801 26.0912C24.5563 26.0303 24.6492 25.9939 24.7465 25.9867L29.2817 25.6556C29.9132 25.4355 30.307 25.1403 30.4507 24.7772C30.609 24.3773 30.4974 23.8177 30.1181 23.1128C30.0877 23.056 30.0688 22.9938 30.0627 22.9297C30.0565 22.8656 30.0632 22.8009 30.0824 22.7394C30.1015 22.6779 30.1327 22.6208 30.1742 22.5715C30.2156 22.5222 30.2665 22.4816 30.3238 22.4522C30.5058 22.359 30.6136 22.258 30.6449 22.1525C30.6831 22.0241 30.6281 21.82 30.492 21.5776C30.4317 21.4712 30.4139 21.3458 30.4423 21.2268C30.4707 21.1078 30.5431 21.0039 30.6449 20.9362C31.0081 20.6907 31.0708 20.5241 31.0815 20.4637C31.0831 20.3695 31.048 20.2785 30.9836 20.2098C30.9175 20.1219 30.8832 20.014 30.8864 19.904C30.8896 19.794 30.9301 19.6883 31.0012 19.6043L32.3399 18.0202L26.9185 6.22189L26.0332 5.79604L15.0314 16.4705C14.9641 17.4743 14.4908 21.9239 11.3034 25.5685C11.3773 26.4871 11.2432 27.4106 10.9112 28.2704C10.4739 29.3858 9.5167 30.7666 7.43179 31.6427Z" fill="#140533"/>
<path d="M21.486 7.23144C22.2802 7.23144 22.9241 6.58758 22.9241 5.79333C22.9241 4.99909 22.2802 4.35522 21.486 4.35522C20.6917 4.35522 20.0479 4.99909 20.0479 5.79333C20.0479 6.58758 20.6917 7.23144 21.486 7.23144Z" fill="#ACCE3B"/>
<path d="M21.4835 7.71516C21.0372 7.71555 20.6048 7.56058 20.2603 7.27685C19.9159 6.99312 19.6809 6.59833 19.5958 6.16025C19.5107 5.72218 19.5808 5.26814 19.7939 4.87608C20.0071 4.48403 20.3501 4.1784 20.7641 4.01168C21.178 3.84496 21.6371 3.82753 22.0625 3.9624C22.4879 4.09726 22.8531 4.376 23.0953 4.75077C23.3376 5.12554 23.4419 5.57296 23.3902 6.01623C23.3386 6.4595 23.1343 6.87096 22.8123 7.17998C22.4551 7.5232 21.9789 7.71497 21.4835 7.71516ZM21.4835 4.8443C21.264 4.84435 21.0512 4.92021 20.8812 5.05904C20.7112 5.19788 20.5943 5.39117 20.5504 5.60624C20.5065 5.82131 20.5381 6.04495 20.6401 6.23935C20.742 6.43375 20.908 6.58698 21.1099 6.67312C21.3118 6.75927 21.5372 6.77304 21.7481 6.71212C21.959 6.65119 22.1424 6.51931 22.2673 6.33877C22.3921 6.15822 22.4508 5.9401 22.4334 5.72129C22.4159 5.50247 22.3235 5.29638 22.1716 5.13788C22.0831 5.04424 21.9764 4.96959 21.8581 4.91847C21.7398 4.86734 21.6124 4.8408 21.4835 4.84047V4.8443Z" fill="#140533"/>
<path d="M19.4088 9.21997C20.2031 9.21997 20.8469 8.57611 20.8469 7.78186C20.8469 6.98761 20.2031 6.34375 19.4088 6.34375C18.6146 6.34375 17.9707 6.98761 17.9707 7.78186C17.9707 8.57611 18.6146 9.21997 19.4088 9.21997Z" fill="#ACCE3B"/>
<path d="M19.4084 9.70327C18.9619 9.70372 18.5292 9.54874 18.1846 9.26492C17.84 8.9811 17.6049 8.58616 17.5197 8.14789C17.4345 7.70962 17.5046 7.25537 17.7178 6.86312C17.9311 6.47088 18.2742 6.16511 18.6884 5.99831C19.1025 5.83151 19.5618 5.81408 19.9874 5.94903C20.413 6.08397 20.7783 6.36286 21.0207 6.73782C21.263 7.11278 21.3673 7.56042 21.3156 8.00388C21.2638 8.44735 21.0593 8.85897 20.7372 9.16808C20.3801 9.51151 19.9039 9.70331 19.4084 9.70327ZM19.4084 6.82934C19.1889 6.82939 18.9761 6.90525 18.8061 7.04408C18.6361 7.18292 18.5192 7.37622 18.4753 7.59128C18.4314 7.80635 18.463 8.02999 18.565 8.22439C18.6669 8.41879 18.8329 8.57202 19.0348 8.65816C19.2367 8.74431 19.4621 8.75808 19.673 8.69716C19.8839 8.63624 20.0673 8.50435 20.1922 8.32381C20.317 8.14327 20.3757 7.92515 20.3583 7.70633C20.3408 7.48751 20.2484 7.28143 20.0965 7.12292C20.0077 7.02991 19.9009 6.95592 19.7826 6.90545C19.6643 6.85498 19.537 6.82909 19.4084 6.82934Z" fill="#140533"/>
<path d="M17.3307 11.2085C18.1249 11.2085 18.7688 10.5646 18.7688 9.77038C18.7688 8.97613 18.1249 8.33228 17.3307 8.33228C16.5364 8.33228 15.8926 8.97613 15.8926 9.77038C15.8926 10.5646 16.5364 11.2085 17.3307 11.2085Z" fill="#ACCE3B"/>
<path d="M17.3316 11.6917C16.8855 11.692 16.4532 11.537 16.109 11.2534C15.7647 10.9697 15.5299 10.5751 15.4449 10.1372C15.3599 9.69934 15.4299 9.24551 15.643 8.85364C15.8561 8.46177 16.1989 8.1563 16.6127 7.98965C17.0265 7.823 17.4853 7.80558 17.9105 7.94036C18.3357 8.07515 18.7008 8.35374 18.943 8.72832C19.1852 9.1029 19.2894 9.55011 19.2379 9.99317C19.1863 10.4362 18.9821 10.8475 18.6603 11.1565C18.3032 11.4998 17.827 11.6916 17.3316 11.6917ZM17.3316 8.81697C17.0859 8.8198 16.8514 8.91972 16.6792 9.09491C16.507 9.2701 16.4112 9.50631 16.4126 9.75195C16.414 9.99759 16.5126 10.2327 16.6868 10.4059C16.861 10.5791 17.0966 10.6763 17.3423 10.6763C17.5879 10.6763 17.8236 10.5791 17.9978 10.4059C18.172 10.2327 18.2705 9.99759 18.2719 9.75195C18.2734 9.50631 18.1775 9.2701 18.0053 9.09491C17.8331 8.91972 17.5986 8.8198 17.353 8.81697H17.3316Z" fill="#140533"/>
<path d="M15.2535 13.196C16.0478 13.196 16.6917 12.5522 16.6917 11.7579C16.6917 10.9637 16.0478 10.3198 15.2535 10.3198C14.4593 10.3198 13.8154 10.9637 13.8154 11.7579C13.8154 12.5522 14.4593 13.196 15.2535 13.196Z" fill="#ACCE3B"/>
<path d="M15.2539 13.6797C14.8079 13.68 14.3756 13.5251 14.0313 13.2414C13.6871 12.9578 13.4523 12.5631 13.3672 12.1253C13.2822 11.6874 13.3523 11.2336 13.5654 10.8417C13.7785 10.4498 14.1213 10.1443 14.5351 9.97769C14.9488 9.81104 15.4077 9.79361 15.8329 9.9284C16.2581 10.0632 16.6231 10.3418 16.8653 10.7164C17.1075 11.0909 17.2118 11.5381 17.1602 11.9812C17.1087 12.4243 16.9045 12.8356 16.5827 13.1445C16.2259 13.4884 15.7495 13.6803 15.2539 13.6797ZM15.2539 10.8058C15.0344 10.8058 14.8217 10.8817 14.6516 11.0205C14.4816 11.1594 14.3647 11.3526 14.3208 11.5677C14.2769 11.7828 14.3086 12.0064 14.4105 12.2008C14.5124 12.3952 14.6784 12.5485 14.8803 12.6346C15.0822 12.7207 15.3077 12.7345 15.5185 12.6736C15.7294 12.6127 15.9128 12.4808 16.0377 12.3002C16.1625 12.1197 16.2212 11.9016 16.2038 11.6828C16.1863 11.4639 16.0939 11.2579 15.942 11.0994C15.8531 11.0063 15.7462 10.9322 15.6278 10.8817C15.5094 10.8313 15.3826 10.8054 15.2539 10.8058Z" fill="#140533"/>
<path d="M6.76348 18.9683C6.76348 18.9683 5.71299 20.7474 5.88655 22.4141L10.7972 25.4064C10.7972 25.4064 13.7789 22.3108 14.1887 18.7061L6.76348 18.9683Z" fill="#5E721D"/>
<path d="M10.7961 25.8913C10.7074 25.8911 10.6203 25.8665 10.5446 25.8202L5.63392 22.8278C5.57018 22.789 5.5163 22.7359 5.4765 22.6728C5.43671 22.6096 5.41208 22.5381 5.40455 22.4639C5.21724 20.6596 6.3006 18.8002 6.34647 18.7223C6.38791 18.6522 6.44633 18.5936 6.51635 18.5521C6.58636 18.5105 6.66572 18.4873 6.7471 18.4845L14.1716 18.2215C14.2412 18.2191 14.3106 18.2317 14.3749 18.2585C14.4392 18.2853 14.497 18.3256 14.5443 18.3768C14.5916 18.428 14.6273 18.4887 14.649 18.5549C14.6708 18.6211 14.6779 18.6912 14.6701 18.7605C14.2465 22.4861 11.2717 25.6115 11.1455 25.743C11.1002 25.7899 11.0459 25.8272 10.9859 25.8527C10.9259 25.8781 10.8613 25.8913 10.7961 25.8913ZM6.35259 22.1313L10.7036 24.7827C11.3688 24.009 13.1295 21.7682 13.6204 19.2108L7.05903 19.4402C6.82202 19.9142 6.32124 21.0419 6.35259 22.1313Z" fill="#140533"/>
<path d="M9.99553 20.6787C12.5843 20.6787 14.683 18.5801 14.683 15.9913C14.683 13.4026 12.5843 11.304 9.99553 11.304C7.40674 11.304 5.30811 13.4026 5.30811 15.9913C5.30811 18.5801 7.40674 20.6787 9.99553 20.6787Z" fill="#94B42D"/>
<path d="M9.99662 21.1602C8.79629 21.1597 7.63357 20.7414 6.70806 19.9771C5.78255 19.2128 5.15199 18.1501 4.92462 16.9715C4.69725 15.793 4.88726 14.572 5.46203 13.5183C6.0368 12.4645 6.96048 11.6437 8.07449 11.1968C9.1885 10.7498 10.4234 10.7047 11.5671 11.069C12.7108 11.4333 13.692 12.1844 14.3422 13.1933C14.9925 14.2022 15.2712 15.406 15.1306 16.598C14.99 17.7901 14.4388 18.896 13.5716 19.7259C12.6099 20.6478 11.3288 21.1617 9.99662 21.1602ZM9.99662 11.7885C8.89326 11.801 7.83971 12.2497 7.06615 13.0366C6.29258 13.8234 5.86188 14.8844 5.86814 15.9878C5.8744 17.0912 6.31712 18.1473 7.09957 18.9253C7.88202 19.7033 8.94059 20.14 10.044 20.14C11.1474 20.14 12.206 19.7033 12.9885 18.9253C13.7709 18.1473 14.2136 17.0912 14.2199 15.9878C14.2262 14.8844 13.7955 13.8234 13.0219 13.0366C12.2483 12.2497 11.1948 11.801 10.0914 11.7885H9.99662Z" fill="#140533"/>
<path d="M9.99611 19.0074C11.6619 19.0074 13.0122 17.657 13.0122 15.9912C13.0122 14.3255 11.6619 12.9751 9.99611 12.9751C8.33035 12.9751 6.97998 14.3255 6.97998 15.9912C6.97998 17.657 8.33035 19.0074 9.99611 19.0074Z" fill="#ACCE3B"/>
<path d="M6.11516 31.7829C8.70396 31.7829 10.8026 29.6843 10.8026 27.0956C10.8026 24.5068 8.70396 22.4082 6.11516 22.4082C3.52637 22.4082 1.42773 24.5068 1.42773 27.0956C1.42773 29.6843 3.52637 31.7829 6.11516 31.7829Z" fill="#94B42D"/>
<path d="M6.11584 32.2644H5.99963C4.64173 32.2491 3.3451 31.6969 2.39303 30.7286C1.44097 29.7602 0.910862 28.4544 0.918539 27.0965C0.926216 25.7385 1.47105 24.4388 2.434 23.4813C3.39695 22.5238 4.69974 21.9863 6.05773 21.9863C7.41572 21.9863 8.71851 22.5238 9.68146 23.4813C10.6444 24.4388 11.1892 25.7385 11.1969 27.0965C11.2046 28.4544 10.6745 29.7602 9.72243 30.7286C8.77037 31.6969 7.47374 32.2491 6.11584 32.2644ZM6.11584 22.8927C5.42769 22.8917 4.7498 23.0595 4.14164 23.3815C3.53349 23.7035 3.01365 24.1698 2.62775 24.7396C2.24184 25.3093 2.00166 25.9651 1.92829 26.6493C1.85491 27.3335 1.95058 28.0253 2.20689 28.6639C2.46321 29.3025 2.87234 29.8685 3.39838 30.3121C3.92443 30.7558 4.55132 31.0635 5.22404 31.2084C5.89676 31.3533 6.59476 31.3308 7.25679 31.143C7.91882 30.9553 8.52464 30.6079 9.02111 30.1314C9.62051 29.5562 10.0361 28.8164 10.2155 28.0053C10.3949 27.1942 10.33 26.3481 10.029 25.5738C9.72803 24.7996 9.20445 24.1318 8.52435 23.6548C7.84424 23.1777 7.03808 22.9128 6.20758 22.8935L6.11584 22.8927Z" fill="#140533"/>
<path d="M6.11477 30.1116C7.78053 30.1116 9.1309 28.7612 9.1309 27.0955C9.1309 25.4297 7.78053 24.0793 6.11477 24.0793C4.449 24.0793 3.09863 25.4297 3.09863 27.0955C3.09863 28.7612 4.449 30.1116 6.11477 30.1116Z" fill="#ACCE3B"/>
<path d="M2.64661 20.5242C2.56872 20.5244 2.49194 20.5057 2.42284 20.4698C2.35374 20.4338 2.29437 20.3817 2.24981 20.3178C1.48527 19.2253 1.26661 18.1771 1.60989 17.2046C2.32168 15.1869 5.21472 14.3345 5.33781 14.2993C5.45976 14.2686 5.58886 14.2866 5.69784 14.3493C5.80682 14.412 5.88716 14.5147 5.92189 14.6355C5.95662 14.7564 5.94302 14.886 5.88397 14.997C5.82492 15.108 5.72503 15.1918 5.6054 15.2305C5.56106 15.2435 3.06405 15.9882 2.52276 17.5287C2.29339 18.1893 2.46541 18.9401 3.04188 19.7612C3.09315 19.8337 3.12352 19.919 3.12965 20.0076C3.13579 20.0962 3.11746 20.1848 3.07667 20.2637C3.03588 20.3425 2.97419 20.4087 2.89835 20.4549C2.82251 20.5012 2.73543 20.5257 2.64661 20.5258V20.5242Z" fill="#140533"/>
<path d="M1.06055 24.5276C0.954223 24.5274 0.850892 24.4923 0.766479 24.4276C0.682066 24.363 0.621255 24.2724 0.593415 24.1698C0.152272 22.526 0.331176 21.2714 1.13854 20.4411C1.8855 19.6727 3.03384 19.4365 4.06369 19.4067C3.92476 19.2541 3.80061 19.0888 3.69288 18.9128C3.10495 17.9525 3.03155 16.7323 3.47422 15.2858C3.51451 15.1662 3.59986 15.067 3.71215 15.0094C3.82443 14.9517 3.95478 14.9401 4.07548 14.977C4.19617 15.014 4.2977 15.0966 4.35846 15.2072C4.41923 15.3178 4.43443 15.4478 4.40085 15.5695C4.04381 16.7354 4.08204 17.6872 4.514 18.3983C5.02854 19.2454 5.97811 19.539 6.25487 19.6093C6.31145 19.6208 6.34738 19.6292 6.35962 19.6322C6.48058 19.6631 6.58495 19.7395 6.65099 19.8455C6.71703 19.9514 6.73964 20.0788 6.71411 20.201C6.68859 20.3232 6.61689 20.4308 6.51396 20.5015C6.41104 20.5721 6.28482 20.6004 6.1616 20.5803C6.1509 20.5803 6.09814 20.5688 6.01404 20.5474C5.07289 20.3478 2.80295 20.1169 1.83198 21.117C1.28151 21.6842 1.17906 22.6262 1.52616 23.9152C1.54566 23.987 1.54834 24.0625 1.53397 24.1355C1.51961 24.2086 1.48859 24.2774 1.44334 24.3366C1.39808 24.3957 1.3398 24.4437 1.27301 24.4767C1.20623 24.5097 1.13274 24.5268 1.05826 24.5268L1.06055 24.5276Z" fill="#140533"/>
<path d="M1.33144 26.458C1.21791 26.4577 1.10809 26.4175 1.02107 26.3446C0.934047 26.2717 0.875331 26.1706 0.855129 26.0589C0.481266 23.9854 0.784791 22.5282 1.75729 21.7262C3.31085 20.4464 5.91413 21.4372 6.02422 21.48C6.14107 21.5286 6.2343 21.6209 6.284 21.7373C6.3337 21.8536 6.33593 21.9848 6.29021 22.1028C6.2445 22.2208 6.15446 22.3162 6.03933 22.3687C5.9242 22.4212 5.79311 22.4266 5.67406 22.3837C5.65189 22.3753 3.48593 21.555 2.37199 22.4755C1.69154 23.0382 1.50193 24.1858 1.80928 25.8869C1.82109 25.9498 1.82034 26.0144 1.80707 26.0771C1.79381 26.1397 1.76828 26.1991 1.73197 26.2518C1.69566 26.3045 1.64928 26.3496 1.5955 26.3843C1.54171 26.419 1.4816 26.4428 1.4186 26.4542C1.38969 26.4577 1.36055 26.459 1.33144 26.458Z" fill="#140533"/>
</g>
<path d="M20.0376 39.9999C16.0745 39.9997 12.2005 38.8244 8.90537 36.6225C5.61026 34.4207 3.04202 31.2913 1.5254 27.6299C0.00878549 23.9686 -0.38811 19.9397 0.384904 16.0528C1.15792 12.1659 3.06613 8.59551 5.86825 5.79304C9.63313 2.06853 14.7193 -0.0141868 20.0152 7.27421e-05C25.3111 0.0143323 30.386 2.12441 34.1308 5.86914C37.8756 9.61387 39.9857 14.6887 39.9999 19.9845C40.0142 25.2804 37.9314 30.3665 34.2069 34.1313C32.3504 35.9978 30.1422 37.4775 27.7101 38.4849C25.2779 39.4922 22.6701 40.0072 20.0376 39.9999ZM20.0376 0.893128C9.52278 0.893128 0.968277 9.44753 0.968277 19.9622C0.968277 30.4769 9.52278 39.0313 20.0376 39.0313C30.5524 39.0313 39.1069 30.4769 39.1069 19.9622C39.1069 9.44753 30.5524 0.893128 20.0376 0.893128Z" fill="#140533"/>
<path d="M20.0375 4.15371C19.9739 4.15381 19.9109 4.14139 19.8522 4.11716C19.7934 4.09294 19.74 4.05737 19.695 4.0125C19.65 3.96764 19.6143 3.91434 19.5899 3.85566C19.5655 3.79698 19.5528 3.73407 19.5527 3.67052V0.486187C19.5527 0.35763 19.6038 0.23434 19.6947 0.143437C19.7856 0.0525336 19.9089 0.00146484 20.0375 0.00146484C20.166 0.00146484 20.2893 0.0525336 20.3802 0.143437C20.4711 0.23434 20.5222 0.35763 20.5222 0.486187V3.67052C20.5221 3.73407 20.5095 3.79698 20.485 3.85566C20.4606 3.91434 20.4249 3.96764 20.3799 4.0125C20.3349 4.05737 20.2815 4.09294 20.2227 4.11716C20.164 4.14139 20.101 4.15381 20.0375 4.15371Z" fill="#140533"/>
<path d="M11.8913 6.33737C11.8062 6.33736 11.7227 6.31496 11.649 6.27242C11.5753 6.22987 11.5141 6.16869 11.4716 6.09501L9.87979 3.33806C9.81551 3.22653 9.79817 3.09404 9.83157 2.96973C9.86498 2.84542 9.9464 2.73948 10.0579 2.6752C10.1694 2.61092 10.3019 2.59358 10.4263 2.62698C10.5506 2.66039 10.6565 2.74181 10.7208 2.85334L12.3087 5.61029C12.3513 5.68397 12.3737 5.76755 12.3737 5.85264C12.3737 5.93772 12.3513 6.0213 12.3088 6.09499C12.2662 6.16867 12.205 6.22987 12.1314 6.27241C12.0577 6.31496 11.9741 6.33736 11.889 6.33737H11.8913Z" fill="#140533"/>
<path d="M5.92708 12.3009C5.84227 12.3006 5.75899 12.2782 5.68548 12.2359L2.92853 10.6441C2.81701 10.5798 2.73559 10.4739 2.70218 10.3496C2.68564 10.288 2.68138 10.2238 2.68965 10.1606C2.69792 10.0974 2.71856 10.0365 2.75039 9.98126C2.78222 9.92604 2.82461 9.87763 2.87515 9.8388C2.92568 9.79996 2.98338 9.77146 3.04493 9.75491C3.16924 9.72151 3.30173 9.73885 3.41325 9.80313L6.1702 11.3949C6.26265 11.4483 6.33488 11.5307 6.37568 11.6294C6.41648 11.728 6.42358 11.8374 6.39587 11.9405C6.36816 12.0436 6.30718 12.1346 6.22242 12.1995C6.13765 12.2644 6.03383 12.2995 5.92708 12.2994V12.3009Z" fill="#140533"/>
<path d="M29.7766 37.3104C29.6915 37.3104 29.6078 37.288 29.534 37.2455C29.4602 37.2029 29.3989 37.1418 29.3561 37.0681L27.7644 34.3111C27.7326 34.2559 27.712 34.195 27.7038 34.1318C27.6955 34.0686 27.6998 34.0044 27.7164 33.9429C27.733 33.8814 27.7615 33.8237 27.8004 33.7732C27.8392 33.7228 27.8877 33.6804 27.9429 33.6486C27.9981 33.6169 28.059 33.5963 28.1222 33.588C28.1854 33.5798 28.2496 33.5841 28.3111 33.6007C28.3726 33.6173 28.4303 33.6458 28.4807 33.6847C28.5312 33.7235 28.5736 33.7719 28.6054 33.8272L30.1971 36.5795C30.2614 36.6908 30.2788 36.8231 30.2456 36.9473C30.2123 37.0715 30.1311 37.1773 30.0198 37.2416C29.9463 37.2859 29.8624 37.3096 29.7766 37.3104Z" fill="#140533"/>
<path d="M36.9044 30.1847C36.8193 30.1849 36.7357 30.1625 36.662 30.1198L33.9097 28.528C33.8545 28.4962 33.806 28.4538 33.7672 28.4034C33.7283 28.3529 33.6998 28.2952 33.6832 28.2337C33.6666 28.1722 33.6623 28.108 33.6706 28.0448C33.6788 27.9816 33.6994 27.9207 33.7312 27.8655C33.7629 27.8103 33.8053 27.7618 33.8558 27.723C33.9063 27.6841 33.9639 27.6556 34.0254 27.639C34.0869 27.6224 34.1511 27.6181 34.2143 27.6264C34.2775 27.6346 34.3384 27.6552 34.3936 27.687L37.1468 29.2826C37.2391 29.3359 37.3113 29.4183 37.3522 29.5169C37.393 29.6154 37.4001 29.7247 37.3725 29.8278C37.3449 29.9308 37.2841 30.0219 37.1994 30.0868C37.1148 30.1518 37.0111 30.187 36.9044 30.187V30.1847Z" fill="#140533"/>
<path d="M39.5135 20.447H36.3299C36.2014 20.447 36.0781 20.3959 35.9872 20.305C35.8963 20.2141 35.8452 20.0908 35.8452 19.9623C35.8452 19.8337 35.8963 19.7104 35.9872 19.6195C36.0781 19.5286 36.2014 19.4775 36.3299 19.4775H39.5135C39.6421 19.4775 39.7654 19.5286 39.8563 19.6195C39.9472 19.7104 39.9982 19.8337 39.9982 19.9623C39.9982 20.0908 39.9472 20.2141 39.8563 20.305C39.7654 20.3959 39.6421 20.447 39.5135 20.447Z" fill="#140533"/>
<path d="M34.1477 12.3008C34.041 12.3008 33.9373 12.2656 33.8527 12.2006C33.7681 12.1357 33.7072 12.0446 33.6796 11.9416C33.652 11.8385 33.6591 11.7292 33.7 11.6307C33.7408 11.5321 33.813 11.4497 33.9054 11.3964L36.6577 9.80459C36.713 9.77276 36.7739 9.75212 36.8371 9.74385C36.9003 9.73558 36.9645 9.73983 37.0261 9.75638C37.0876 9.77292 37.1453 9.80142 37.1958 9.84026C37.2464 9.8791 37.2888 9.92751 37.3206 9.98273C37.3524 10.0379 37.3731 10.0989 37.3813 10.1621C37.3896 10.2253 37.3853 10.2895 37.3688 10.3511C37.3523 10.4126 37.3238 10.4703 37.2849 10.5208C37.2461 10.5714 37.1977 10.6138 37.1425 10.6456L34.3893 12.2336C34.3161 12.2768 34.2328 12.3 34.1477 12.3008Z" fill="#140533"/>
<path d="M28.1839 6.33737C28.0988 6.33736 28.0152 6.31496 27.9416 6.27241C27.8679 6.22986 27.8067 6.16867 27.7641 6.09499C27.7216 6.0213 27.6992 5.93772 27.6992 5.85264C27.6992 5.76755 27.7216 5.68397 27.7642 5.61029L29.3582 2.85334C29.3901 2.79811 29.4325 2.7497 29.483 2.71087C29.5335 2.67203 29.5912 2.64352 29.6528 2.62698C29.7143 2.61044 29.7785 2.60618 29.8417 2.61446C29.9049 2.62273 29.9659 2.64337 30.0211 2.6752C30.0763 2.70702 30.1247 2.74942 30.1636 2.79995C30.2024 2.85049 30.2309 2.90818 30.2475 2.96973C30.264 3.03128 30.2682 3.09549 30.26 3.15869C30.2517 3.22189 30.2311 3.28284 30.1992 3.33806L28.6036 6.09501C28.5612 6.16874 28.5 6.22997 28.4263 6.27252C28.3526 6.31507 28.269 6.33744 28.1839 6.33737Z" fill="#140533"/>
<path d="M26.5135 38.9021C26.3983 38.9021 26.2868 38.8609 26.1993 38.7858C26.1779 38.7675 24.0073 36.9188 21.862 35.5296C21.7576 35.4583 21.6853 35.3489 21.6604 35.225C21.6355 35.101 21.66 34.9722 21.7287 34.866C21.7975 34.7599 21.905 34.6848 22.0283 34.6568C22.1516 34.6288 22.281 34.6501 22.3888 34.7162C24.5892 36.1413 26.7383 37.9716 26.8285 38.0488C26.9039 38.1132 26.9577 38.1991 26.9827 38.2951C27.0077 38.391 27.0027 38.4922 26.9684 38.5852C26.934 38.6782 26.872 38.7584 26.7907 38.8151C26.7094 38.8717 26.6126 38.9021 26.5135 38.9021Z" fill="#140533"/>
<path d="M171.545 27.0836L177.131 12.9167H179.708L185.314 27.0836H183.191L181.81 23.5729H174.926L173.565 27.0836H171.545ZM175.565 21.9001H181.151L179.44 17.4601C179.399 17.3362 179.337 17.1641 179.254 16.9438C179.172 16.7235 179.083 16.4826 178.986 16.221C178.89 15.9456 178.794 15.6703 178.698 15.3949C178.602 15.1058 178.512 14.8442 178.43 14.6102H178.306C178.21 14.8855 178.1 15.2022 177.976 15.5601C177.853 15.9181 177.729 16.2692 177.605 16.6134C177.482 16.9438 177.379 17.226 177.296 17.4601L175.565 21.9001Z" fill="white"/>
<path d="M151.812 27.0836V12.9167H153.709L160.573 22.2512C160.641 22.3338 160.731 22.4577 160.841 22.6229C160.951 22.7881 161.06 22.9534 161.17 23.1186C161.28 23.27 161.37 23.4077 161.438 23.5316H161.521C161.521 23.3113 161.521 23.0979 161.521 22.8914C161.521 22.6711 161.521 22.4577 161.521 22.2512V12.9167H163.438V27.0836H161.644L154.698 17.584C154.602 17.4325 154.458 17.2191 154.265 16.9438C154.087 16.6684 153.936 16.4481 153.812 16.2829H153.709C153.709 16.5032 153.709 16.7235 153.709 16.9438C153.709 17.1503 153.709 17.3637 153.709 17.584V27.0836H151.812Z" fill="white"/>
<path d="M136.283 27.3315C135.087 27.3315 134.057 27.1387 133.191 26.7532C132.325 26.3677 131.659 25.762 131.191 24.9359C130.738 24.0961 130.511 23.0222 130.511 21.7143V12.9167H132.469V21.9208C132.469 23.1599 132.799 24.0892 133.459 24.7087C134.132 25.3283 135.073 25.638 136.283 25.638C137.506 25.638 138.461 25.3283 139.148 24.7087C139.835 24.0892 140.178 23.1599 140.178 21.9208V12.9167H142.116V21.7143C142.116 23.0222 141.882 24.0961 141.415 24.9359C140.948 25.762 140.275 26.3677 139.395 26.7532C138.529 27.1387 137.492 27.3315 136.283 27.3315Z" fill="white"/>
<path d="M115.331 27.0836V14.6308H110.487V12.9167H122.174V14.6308H117.289V27.0836H115.331Z" fill="white"/>
<path d="M91.2324 27.0836V12.9167H98.6734C99.6353 12.9167 100.432 13.0957 101.064 13.4537C101.71 13.7979 102.191 14.2866 102.507 14.9199C102.823 15.5395 102.981 16.2554 102.981 17.0677C102.981 18.0452 102.761 18.885 102.322 19.5872C101.882 20.2893 101.277 20.7918 100.508 21.0947L103.476 27.0836H101.332L98.5703 21.4458H93.1906V27.0836H91.2324ZM93.1906 19.773H98.4879C99.2712 19.773 99.8827 19.5321 100.322 19.0502C100.776 18.5684 101.003 17.9075 101.003 17.0677C101.003 16.5445 100.906 16.104 100.714 15.746C100.522 15.388 100.24 15.1127 99.8689 14.9199C99.4979 14.7134 99.0376 14.6102 98.4879 14.6102H93.1906V19.773Z" fill="white"/>
<path d="M75.153 27.3312C73.6826 27.3312 72.4184 27.0628 71.3603 26.5258C70.316 25.9889 69.5052 25.1766 68.9281 24.089C68.3647 23.0013 68.083 21.6383 68.083 20C68.083 18.3479 68.3647 16.9849 68.9281 15.911C69.5052 14.8233 70.316 14.011 71.3603 13.4741C72.4184 12.9372 73.6826 12.6687 75.153 12.6687C76.6233 12.6687 77.8807 12.9372 78.925 13.4741C79.9831 14.011 80.7938 14.8233 81.3572 15.911C81.9344 16.9849 82.2229 18.3479 82.2229 20C82.2229 21.6383 81.9344 23.0013 81.3572 24.089C80.7938 25.1766 79.9831 25.9889 78.925 26.5258C77.8807 27.0628 76.6233 27.3312 75.153 27.3312ZM75.153 25.6378C75.9225 25.6378 76.6164 25.5346 77.2348 25.328C77.8669 25.1215 78.396 24.798 78.8219 24.3574C79.2617 23.9031 79.5983 23.3386 79.8319 22.664C80.0655 21.9756 80.1823 21.1633 80.1823 20.2271V19.7935C80.1823 18.8435 80.0655 18.0312 79.8319 17.3566C79.5983 16.6682 79.2617 16.1037 78.8219 15.6632C78.396 15.2088 77.8669 14.8784 77.2348 14.6719C76.6164 14.4654 75.9225 14.3621 75.153 14.3621C74.3697 14.3621 73.6689 14.4654 73.0505 14.6719C72.4322 14.8784 71.9031 15.2088 71.4634 15.6632C71.0237 16.1037 70.687 16.6682 70.4534 17.3566C70.2335 18.0312 70.1236 18.8435 70.1236 19.7935V20.2271C70.1236 21.1633 70.2335 21.9756 70.4534 22.664C70.687 23.3386 71.0237 23.9031 71.4634 24.3574C71.9031 24.798 72.4322 25.1215 73.0505 25.328C73.6689 25.5346 74.3697 25.6378 75.153 25.6378Z" fill="white"/>
<path d="M50 27.0836V12.9167H60.0175V14.6102H51.9582V19.1535H59.2961V20.8263H51.9582V27.0836H50Z" fill="white"/>
</g>
<defs>
<clipPath id="clip0_25_149">
<rect width="186" height="40" fill="white"/>
</clipPath>
</defs>
</svg>
