<?xml version="1.0" encoding="UTF-8"?>
<svg id="Layer_2" data-name="Layer 2" xmlns="http://www.w3.org/2000/svg" xmlns:xlink="http://www.w3.org/1999/xlink" viewBox="0 0 524.18 524.18">
  <defs>
    <style>
      .cls-1 {
        fill: #28310d;
      }

      .cls-1, .cls-2, .cls-3, .cls-4, .cls-5, .cls-6, .cls-7, .cls-8, .cls-9, .cls-10, .cls-11 {
        stroke-width: 0px;
      }

      .cls-12, .cls-13, .cls-14, .cls-15, .cls-16 {
        stroke-linecap: round;
        stroke-linejoin: round;
      }

      .cls-12, .cls-3 {
        fill: #acce3b;
      }

      .cls-12, .cls-14, .cls-15, .cls-16 {
        stroke: #140533;
        stroke-width: 12.67px;
      }

      .cls-13 {
        stroke: #799325;
        stroke-width: 10.3px;
      }

      .cls-13, .cls-6, .cls-15 {
        fill: none;
      }

      .cls-2, .cls-14 {
        fill: #5e721d;
      }

      .cls-4, .cls-16 {
        fill: #94b42d;
      }

      .cls-5 {
        fill: #fff7df;
      }

      .cls-17 {
        clip-path: url(#clippath);
      }

      .cls-7 {
        fill: #87a329;
      }

      .cls-8 {
        fill: #9fc131;
      }

      .cls-9 {
        fill: #6c8321;
      }

      .cls-10 {
        fill: #140533;
      }

      .cls-11 {
        fill: #290327;
      }
    </style>
    <clipPath id="clippath">
      <circle class="cls-6" cx="262.09" cy="262.09" r="255.75"/>
    </clipPath>
  </defs>
  <g id="Layer_1-2" data-name="Layer 1">
    <g>
      <circle class="cls-3" cx="262.09" cy="262.09" r="255.75"/>
      <g class="cls-17">
        <g>
          <circle class="cls-3" cx="262.09" cy="262.09" r="209.61"/>
          <circle class="cls-15" cx="262.09" cy="262.09" r="209.61"/>
          <g>
            <path class="cls-11" d="M355.42,505.43c-62.49-68.57-241.57-110.1-257.82-123.25,0,0-12.31,14-53.09,20.25,11.8,76.35,183.26,157.89,298.71,120.17,1.09-.35,12.2-17.16,12.2-17.16Z"/>
            <path class="cls-3" d="M344.67,508.57s-37.57-41.22-127.33-73.61c-89.76-32.39-63.71-16.26-125.89-47.95,0,0-12.35,6.85-19.88,9.11l35.43,32.36,206.1,86.66,31.57-6.58Z"/>
            <path class="cls-2" d="M327.87,512.07s-36.85-38.24-124.86-67.2c-88.02-28.96-100.21-30.48-124.97-51.82,0,0-9.53,4.95-25.15,8.38l-8.37,1s19.37,83.81,150.09,117.04c130.71,33.23,148.62,3.13,148.62,3.13l-15.35-10.53Z"/>
            <path class="cls-1" d="M316.94,515.15s-49.15-39.8-127.26-55.8c-78.11-16-121.15-33.44-145.16-56.92,0,0,10.05,70.25,124.09,109.31,114.04,39.05,148.33,3.41,148.33,3.41Z"/>
            <path class="cls-3" d="M297.12,518.21s-85.35-60.47-188.6-54.14c0,0,62.87,87.48,188.6,54.14Z"/>
            <path class="cls-2" d="M271.5,518.21s-78.18-45.38-143.63-39.55c0,0,73.81,69.84,143.63,39.55Z"/>
          </g>
          <g>
            <path class="cls-3" d="M338.85,70.1c-31.86-15.25-57.03-18.94-94.78-16.16-115.45,8.52-202.14,109.01-193.62,224.46l18.81,47.5L338.85,70.1Z"/>
            <path class="cls-4" d="M277.64,127.73s-46.41-73.74-168.75-10.53c0,0-29.88,37.18-36.09,50.42-6.2,13.24,119.34,41.45,119.34,41.45l85.5-81.34Z"/>
            <path class="cls-1" d="M243.49,329.07s-16.66,61.22-78.83,102.06l-46.78-9.32,68.68-97.44,35.98-22.52,20.95,27.22Z"/>
            <path class="cls-15" d="M339.27,69.18c-31.86-15.25-57.45-18.02-95.2-15.24-115.45,8.52-202.14,109.01-193.62,224.46l18.81,47.5L339.27,69.18Z"/>
            <path class="cls-16" d="M69.63,194.72s-47.58,11.78-43.87,50.2c0,0,3.66,15.87,5.92,19.66,2.26,3.79-22.21,8.73-25.67,25.02-3.46,16.29,11.77,55.94,11.77,55.94l59.02-53.85,11.96-36.86-19.13-60.1Z"/>
            <path class="cls-3" d="M380.74,129.55l-23.84-51.89-20.01-8.3-141.8,139.72s-11.47,73.67-53.93,127.36l-20.13,72.99,20.44-1.51,29.41-44.49s48.92-11.99,68.1-93.08l6.34-7.21,8.78,12.68s29.45-12.76,33.63-62.04c0,0,22.69-16.41,35.19-46.06,0,0,23.88-18.37,29.03-34.22,0,0,23.4,1.72,28.79-3.96Z"/>
            <path class="cls-4" d="M369.75,110.82s-29.16,5.39-66.66-6.54l-15.66,15.2s55.96,19.14,87.7,11.16l-5.38-19.82Z"/>
            <path class="cls-4" d="M333.16,150.53s-36.47,3.56-60.73-11.16l-29,29.17s74.64-2.96,89.73-18.02Z"/>
            <path class="cls-4" d="M262.06,170.72s-16.31,16.09,21.29,20.31c0,0-55.14,4.63-58.78-6.6-3.65-11.23,12.44-13.56,12.44-13.56l25.05-.15Z"/>
            <path class="cls-4" d="M238.86,213.44s-25.28,8.34-39.7-4.67l-8.73,21.82-.29,11.67,37.31-14.35,11.41-14.47Z"/>
            <path class="cls-4" d="M249.12,208.4s5.63,19.05,33.41,10.63l-39.28,16.01s-14.85,2.36-15.19.98c-.35-1.38,7.56-13.91,7.56-13.91l13.51-13.72Z"/>
            <path class="cls-4" d="M218.15,277.39s-26.92,14.89-31.13-12.27-14.08,18.63-14.08,18.63l.89,12.05s25.01-.16,25.44-1.88c.43-1.71,18.88-16.54,18.88-16.54Z"/>
            <path class="cls-4" d="M217.28,317.57s-41.01,33.28-49.16,12.02l-2.21,31.53,11.49,1.06,29.21-25.89,10.67-18.71Z"/>
            <path class="cls-4" d="M162.88,351.59s-12.76,10.55-22.32,13.31l-14.51,38.36,11.18,1.99,26.08-36.61-.42-17.04Z"/>
            <path class="cls-5" d="M377.99,131.58l48.51,104.75-18.52,25.35s2.77,16.24-4.59,20.41c0,0,8.28,14.5-1.75,21.87,0,0,20.38,42.84-34.15,40.21l-24.64-79.43-37.71-62.28s17.24-24.98,18.93-38.06c0,0,17.99-12.61,23.04-25.32,0,0,26.74-11.6,30.87-7.51Z"/>
            <path class="cls-9" d="M403.48,328.92s-15.27.28-31.64-.44l1.12,15.17s22.88.54,30.52-14.73Z"/>
            <line class="cls-15" x1="405.94" y1="275.32" x2="385.92" y2="276.8"/>
            <line class="cls-5" x1="397.75" y1="300.78" x2="392.42" y2="301.17"/>
            <line class="cls-13" x1="421.39" y1="241.76" x2="401.37" y2="243.23"/>
            <path class="cls-7" d="M381.74,182.4s2.28-21.08-19.22-12.52c-21.5,8.56-40.29,30.33-40.29,30.33,0,0,7.09,6.27,16.07,2.82,0,0,20.49-19.92,43.44-20.63Z"/>
            <path class="cls-8" d="M338.3,203.04s17.75,11.41,30.92,8.09l-1.09-14.82s-11.04,7.39-29.83,6.73Z"/>
            <path class="cls-10" d="M381.09,211.38l-1.33-18.03,1.98-10.95s-24.63-.8-43.44,20.63c0,0,17.42.49,29.83-6.73l1.18,15.95,11.79-.87Z"/>
            <path class="cls-2" d="M320.69,358.64l-74.2-41.8-4.38,19.73s32.96,36.13,71.75,44.31l6.84-22.25Z"/>
            <g>
              <path class="cls-1" d="M374.6,339.61l-2.77-11.12-102.82-63.43-14.93,10.77-7.6,41.02s24.54,29.93,74.2,41.8l3.5-11.39,50.7-3.74-.29-3.9Z"/>
              <path class="cls-8" d="M362.78,296.3l-4.1-24.79s-34.52-36.3-50.07-77.82l-20.53,24.56s21.18,75.61,76.74,89.87l-2.05-11.81Z"/>
              <path class="cls-7" d="M371.83,328.48l-92.16-81.32-10.66,17.89s30.96,65.51,102.82,63.43Z"/>
              <path class="cls-4" d="M362.78,296.3s-46.79-14.79-66.55-87.09l-25.61,18.35s28.81,78.22,101.21,100.93c0,0-7.25-14.8-9.05-32.18Z"/>
            </g>
            <path class="cls-5" d="M220.89,437.16s53.05,17.16,68.52,23.23l24.44-79.51-47.44,1.73-52.76,43.19,7.23,11.35Z"/>
            <path class="cls-3" d="M313.85,380.89c-50.71-17.5-72.3-51.86-72.3-51.86-3.48,13.56-13.69,29.47-25.37,44.3.39,17.61,9.03,36.85,17.06,51.04,43.44-41.71,80.62-43.48,80.62-43.48Z"/>
            <path class="cls-7" d="M216.18,373.33c-20.87,26.5-52.88,57.53-52.88,57.53l52.06,11.83c4.15-4.64,13.8-14.41,17.87-18.32-8.03-14.19-16.66-33.43-17.06-51.04Z"/>
            <rect class="cls-5" x="243.45" y="371.5" width="12.81" height="12.81" transform="translate(307.49 -71.45) rotate(40.78)"/>
            <g>
              <polygon class="cls-3" points="244.83 256.64 268.5 305.78 246.41 334.6 222.98 307.75 244.83 256.64"/>
              <path class="cls-15" d="M287.72,213.79s4.29,42.16-33.63,62.04"/>
              <path class="cls-15" d="M380.74,129.55s-32.14,12.43-93.31-10.07l51.84-50.3,17.63,8.47,23.84,51.89Z"/>
              <path class="cls-15" d="M348.52,133.76c-4.53,37.77-110.03,33.2-110.03,33.2"/>
              <path class="cls-15" d="M326.48,156.15c-12.14,48.57-53.23,81.57-140.9,89.51,0,0,52.73-7.01,65.35-51.86"/>
              <path class="cls-15" d="M311.79,189.34s-45.33,18.6-89.84-6.33"/>
              <polygon class="cls-15" points="244.83 256.64 268.5 305.78 246.41 334.6 222.98 307.75 244.83 256.64"/>
              <path class="cls-15" d="M222.98,307.75s-12.97,46.27-57.47,57.22c0,0-20.84,46.41-54.71,54.42"/>
              <path class="cls-15" d="M165.51,364.97c3.84-33.05-3.28-60.32-3.28-60.32,60.1-18.64,82.6-48.01,82.6-48.01-6.59-11.36-14.9-17.99-14.9-17.99"/>
            </g>
            <path class="cls-15" d="M289.41,460.39l34.79-113.15,60.06-4.43c23.84-7.96,25.63-23.23,15.25-42.52,8.89-4.56,9.75-11.52,4.78-20.22,9.09-6.14,10.65-12.33,5.95-18.56l20.2-23.8-73.54-160.07-17.63-8.47-148.85,144.42s-2.07,67.6-49.2,119.7c0,0,11.52,66.04-69.77,82.8l217.96,44.29Z"/>
            <g>
              <circle class="cls-12" cx="281.03" cy="76.76" r="18.81"/>
              <circle class="cls-12" cx="253.86" cy="102.77" r="18.81"/>
              <circle class="cls-12" cx="226.69" cy="128.78" r="18.81"/>
              <circle class="cls-12" cx="199.51" cy="154.78" r="18.81"/>
            </g>
            <path class="cls-14" d="M88.47,249.09s-13.74,23.27-11.48,45.07l64.23,39.14s39-40.49,44.37-87.64l-97.11,3.43Z"/>
            <g>
              <circle class="cls-16" cx="130.75" cy="210.15" r="61.31"/>
              <circle class="cls-3" cx="130.75" cy="210.15" r="39.45"/>
            </g>
            <g>
              <circle class="cls-16" cx="79.99" cy="355.39" r="61.31"/>
              <circle class="cls-3" cx="79.99" cy="355.39" r="39.45"/>
            </g>
            <path class="cls-15" d="M71.57,194.11S.48,214.54,34.61,263.1"/>
            <path class="cls-15" d="M13.89,315.46c-19.65-72.56,67.82-51.52,67.82-51.52,0,0-46.42-8.19-30.2-61.17"/>
            <path class="cls-15" d="M76.5,287.85s-73.79-28.69-59.07,52.86"/>
            <circle class="cls-6" cx="262.54" cy="258.53" r="216.76"/>
          </g>
        </g>
      </g>
      <circle class="cls-15" cx="262.09" cy="262.09" r="255.75"/>
      <line class="cls-15" x1="262.09" y1="7.35" x2="262.09" y2="48.99"/>
      <line class="cls-15" x1="134.72" y1="41.48" x2="155.54" y2="77.54"/>
      <line class="cls-15" x1="41.48" y1="134.72" x2="77.54" y2="155.54"/>
      <line class="cls-15" x1="389.46" y1="482.7" x2="368.64" y2="446.64"/>
      <line class="cls-15" x1="482.7" y1="389.46" x2="446.64" y2="368.64"/>
      <line class="cls-15" x1="516.83" y1="262.09" x2="475.19" y2="262.09"/>
      <line class="cls-15" x1="482.7" y1="134.72" x2="446.64" y2="155.54"/>
      <line class="cls-15" x1="389.46" y1="41.48" x2="368.64" y2="77.54"/>
      <path class="cls-15" d="M346.81,503.48s-28.64-24.47-57.4-43.09"/>
    </g>
  </g>
</svg>